<svg xmlns="http://www.w3.org/2000/svg" viewBox="0 0 178.83 180"><defs><style>.cls-1{isolation:isolate;}.cls-2{fill:#ff5512;}.cls-3,.cls-4,.cls-5,.cls-6,.cls-7{fill:#b2380b;mix-blend-mode:multiply;}.cls-3{opacity:0.75;}.cls-4{opacity:0.5;}.cls-5{opacity:0.25;}.cls-6{opacity:0;}</style></defs><title>ORB-MARS</title><g class="cls-1"><g id="Layer_2" data-name="Layer 2"><g id="everything"><path class="cls-2" d="M62.5,143.11c6.75,7.08,14.95,11.19,25.68,11.19s19.12-4.2,25.91-11.43c-10.86-12.41-18-32.13-25.69-53.7C80.68,110.88,73.48,130.71,62.5,143.11Z"/><path class="cls-2" d="M61.9,32.79c-11,12-18.12,31.89-26.27,54.83,8.16,22.95,15.3,42.89,26.28,54.84,10.78-12.22,17.87-32.07,26-54.82C79.77,64.88,72.69,45,61.9,32.79Z"/><path class="cls-2" d="M88.94,87.65C97,110.24,104,130,114.68,142.22c10.85-12,18-31.79,26.06-54.57C132.63,64.85,125.52,45,114.68,33,104,45.29,97,65,88.94,87.65Z"/><path class="cls-2" d="M14.92,39.54C22.39,51.16,28.1,66.49,34,83.07,41.58,61.82,48.82,42.6,59.87,30.63A34.61,34.61,0,0,0,34.23,19.93c-.52,0-1,0-1.53,0A89.39,89.39,0,0,0,14.92,39.54Z"/><path class="cls-2" d="M60.46,30C67.69,22.4,76.56,17.9,88.18,17.9s20.65,4.6,27.93,12.32c7-7.1,15.47-11.3,26.47-11.3.38,0,.73,0,1.1,0A88.84,88.84,0,0,0,34,18.92h.21C45.1,18.92,53.52,23,60.46,30Z"/><path class="cls-2" d="M162.06,38.56A89.32,89.32,0,0,0,145,20c-.79,0-1.59-.08-2.41-.08a34.65,34.65,0,0,0-25.88,10.93c10.92,12,18.13,31.1,25.66,52.23C148.43,66,154.29,50.3,162.06,38.56Z"/><path class="cls-2" d="M164.61,135.18a88.87,88.87,0,0,0-.76-93.93C156.26,53.19,150.43,69.48,144,87.65,150.64,106.41,156.64,123.16,164.61,135.18Z"/><path class="cls-2" d="M14.14,136.93A89.22,89.22,0,0,0,29.63,155a40.83,40.83,0,0,0,4.6.27,34.61,34.61,0,0,0,25.65-10.69c-11-12-18.29-31.19-25.87-52.45C27.89,109.33,22,125.16,14.14,136.93Z"/><path class="cls-2" d="M13.16,42.29a88.88,88.88,0,0,0-.74,91.86c7.63-11.94,13.48-28.28,20-46.52C26.11,70,20.44,54.11,13.16,42.29Z"/><path class="cls-2" d="M162.88,137.89C154.7,126,148.63,109.82,142.35,92.2c-7.53,21.11-14.74,40.21-25.66,52.19a34.68,34.68,0,0,0,25.88,10.93,39.85,39.85,0,0,0,5.58-.39A89.28,89.28,0,0,0,162.88,137.89Z"/><path class="cls-2" d="M116.11,145c-7.28,7.71-16.2,12.31-27.93,12.31s-20.47-4.5-27.71-12.08c-6.94,7-15.36,11.06-26.24,11.06-1.13,0-2.22-.06-3.3-.15a88.81,88.81,0,0,0,115.9-.1,40.66,40.66,0,0,1-4.26.24C131.58,156.34,123.09,152.13,116.11,145Z"/><path class="cls-2" d="M114.09,32.39C107.29,25.15,99,21,88.18,21S69.24,25.06,62.49,32.15c11,12.4,18.18,32.25,25.91,54C96.08,64.54,103.23,44.81,114.09,32.39Z"/><path class="cls-3" d="M63.68,145.45c6.75,7.09,14.95,11.19,25.68,11.19s19.12-4.2,25.91-11.43c-10.86-12.41-18-32.13-25.69-53.7C81.85,113.23,74.65,133.06,63.68,145.45Z"/><path class="cls-4" d="M63.07,35.13C52.1,47.09,45,67,36.8,90c8.16,22.94,15.3,42.89,26.28,54.84C73.86,132.59,81,112.74,89,90,80.95,67.23,73.86,47.36,63.07,35.13Z"/><path class="cls-4" d="M90.12,90c8,22.59,15.07,42.33,25.73,54.57,10.85-12,18-31.79,26.06-54.57-8.1-22.79-15.21-42.62-26.06-54.61C105.19,47.64,98.15,67.39,90.12,90Z"/><path class="cls-5" d="M16.1,41.88c7.46,11.63,13.18,27,19.09,43.53C42.76,64.16,50,44.94,61,33A34.6,34.6,0,0,0,35.4,22.28c-.52,0-1,0-1.53,0A89.39,89.39,0,0,0,16.1,41.88Z"/><path class="cls-6" d="M61.63,32.33c7.24-7.58,16.1-12.08,27.72-12.08s20.65,4.6,27.93,12.32c7-7.1,15.47-11.3,26.47-11.3.38,0,.73,0,1.1,0a88.84,88.84,0,0,0-109.66,0h.21C46.28,21.26,54.69,25.38,61.63,32.33Z"/><path class="cls-5" d="M163.23,40.9a89.3,89.3,0,0,0-17.07-18.54c-.79,0-1.59-.08-2.41-.08a34.65,34.65,0,0,0-25.88,10.93c10.93,12,18.13,31.1,25.66,52.23C149.6,68.4,155.46,52.65,163.23,40.9Z"/><path class="cls-4" d="M165.78,137.53A88.87,88.87,0,0,0,165,43.6C157.43,55.54,151.6,71.82,145.15,90,151.82,108.76,157.82,125.51,165.78,137.53Z"/><path class="cls-3" d="M15.32,139.28A89.21,89.21,0,0,0,30.8,157.39a40.76,40.76,0,0,0,4.6.27A34.61,34.61,0,0,0,61.05,147c-11-12-18.29-31.19-25.87-52.45C29.07,111.68,23.17,127.51,15.32,139.28Z"/><path class="cls-4" d="M14.33,44.63a88.88,88.88,0,0,0-.74,91.86c7.63-11.94,13.48-28.28,20-46.52C27.29,72.33,21.61,56.46,14.33,44.63Z"/><path class="cls-3" d="M164.05,140.24c-8.18-11.85-14.24-28.07-20.52-45.69-7.53,21.11-14.73,40.21-25.66,52.19a34.68,34.68,0,0,0,25.88,10.93,39.5,39.5,0,0,0,5.58-.39A89.13,89.13,0,0,0,164.05,140.24Z"/><path class="cls-7" d="M117.29,147.39c-7.28,7.71-16.2,12.31-27.93,12.31s-20.47-4.5-27.71-12.08c-6.94,7-15.36,11.06-26.24,11.06-1.13,0-2.22-.06-3.29-.14a88.81,88.81,0,0,0,115.9-.1,40,40,0,0,1-4.26.24C132.75,158.68,124.27,154.48,117.29,147.39Z"/><path class="cls-5" d="M115.26,34.74C108.47,27.5,100.21,23.3,89.35,23.3S70.42,27.41,63.67,34.49c11,12.4,18.18,32.25,25.91,54C97.25,66.89,104.4,47.16,115.26,34.74Z"/></g></g></g></svg>