<?xml version="1.0" encoding="utf-8"?>
<!-- Generator: Adobe Illustrator 21.1.0, SVG Export Plug-In . SVG Version: 6.00 Build 0)  -->
<svg version="1.1" id="Layer_1" xmlns="http://www.w3.org/2000/svg" xmlns:xlink="http://www.w3.org/1999/xlink" x="0px" y="0px"
	 viewBox="0 0 120 120" style="enable-background:new 0 0 120 120;" xml:space="preserve">
<style type="text/css">
	.st0{fill:none;stroke:#F9F9F9;stroke-width:1.08;stroke-miterlimit:10;}
	.st1{fill:none;stroke:#F9F9F9;stroke-width:2.17;stroke-miterlimit:10;}
</style>
<title>oscillo-orb-03-animated</title>
<circle id="ORB" cx="60" cy="60" r="60"/>
<path id="COSINE_2_" class="st0" d="M296,12c-20,0-28,22-37,48s-17,48-37,48s-28-22-37-48s-17-48-37-48s-28,22-37,48s-17,48-37,48
	S46,86,37,60S20,12,0,12"/>
<path id="COSINE_1_" class="st1" d="M-14,60c9-26,17-48,37-48s28,22,37,48s17,48,37,48s28-22,37-48s17-48,37-48s28,22,37,48
	s17,48,37,48s28-22,37-48"/>
</svg>
