<svg xmlns="http://www.w3.org/2000/svg" viewBox="0 0 856 856"><defs><style>.cls-1{fill:#fff;}.cls-2{fill:#121212;}</style></defs><title>shaped</title><g id="Layer_2" data-name="Layer 2"><g id="site-layout"><rect class="cls-1" width="856" height="856"/><g id="_Group_" data-name="&lt;Group&gt;"><path class="cls-2" d="M178.18,365.67l5,4.06a1.38,1.38,0,0,1,0,2.16l-5,4.06-4.06,5a1.38,1.38,0,0,1-2.16,0l-4.06-5-5-4.06a1.38,1.38,0,0,1,0-2.16l5-4.06,4.06-5a1.38,1.38,0,0,1,2.16,0Z"/></g><g id="_Group_2" data-name="&lt;Group&gt;"><path class="cls-2" d="M260.38,365.67l5,4.06a1.38,1.38,0,0,1,0,2.16l-5,4.06-4.06,5a1.38,1.38,0,0,1-2.16,0l-4.06-5-5-4.06a1.38,1.38,0,0,1,0-2.16l5-4.06,4.06-5a1.38,1.38,0,0,1,2.16,0Z"/></g><g id="_Group_3" data-name="&lt;Group&gt;"><path class="cls-2" d="M260.38,447.87l5,4.06a1.38,1.38,0,0,1,0,2.16l-5,4.06-4.06,5a1.38,1.38,0,0,1-2.16,0l-4.06-5-5-4.06a1.38,1.38,0,0,1,0-2.16l5-4.06,4.06-5a1.38,1.38,0,0,1,2.16,0Z"/></g><g id="_Group_4" data-name="&lt;Group&gt;"><path class="cls-2" d="M342.58,365.67l5,4.06a1.38,1.38,0,0,1,0,2.16l-5,4.06-4.06,5a1.38,1.38,0,0,1-2.16,0l-4.06-5-5-4.06a1.38,1.38,0,0,1,0-2.16l5-4.06,4.06-5a1.38,1.38,0,0,1,2.16,0Z"/></g><g id="_Group_5" data-name="&lt;Group&gt;"><path class="cls-2" d="M178.18,530.07l5,4.06a1.38,1.38,0,0,1,0,2.16l-5,4.06-4.06,5a1.38,1.38,0,0,1-2.16,0l-4.06-5-5-4.06a1.38,1.38,0,0,1,0-2.16l5-4.06,4.06-5a1.38,1.38,0,0,1,2.16,0Z"/></g><g id="_Group_6" data-name="&lt;Group&gt;"><path class="cls-2" d="M342.58,530.07l5,4.06a1.38,1.38,0,0,1,0,2.16l-5,4.06-4.06,5a1.38,1.38,0,0,1-2.16,0l-4.06-5-5-4.06a1.38,1.38,0,0,1,0-2.16l5-4.06,4.06-5a1.38,1.38,0,0,1,2.16,0Z"/></g><g id="_Group_7" data-name="&lt;Group&gt;"><circle class="cls-2" cx="132.37" cy="330.13" r="10.28"/></g><g id="_Group_8" data-name="&lt;Group&gt;"><circle class="cls-2" cx="214.57" cy="330.13" r="10.28"/></g><g id="_Group_9" data-name="&lt;Group&gt;"><circle class="cls-2" cx="296.77" cy="330.13" r="10.28"/></g><g id="_Group_10" data-name="&lt;Group&gt;"><circle class="cls-2" cx="378.97" cy="330.13" r="10.28"/></g><g id="_Group_11" data-name="&lt;Group&gt;"><circle class="cls-2" cx="132.37" cy="576.73" r="10.28"/></g><g id="_Group_12" data-name="&lt;Group&gt;"><circle class="cls-2" cx="214.57" cy="576.73" r="10.28"/></g><g id="_Group_13" data-name="&lt;Group&gt;"><circle class="cls-2" cx="296.77" cy="576.73" r="10.28"/></g><g id="_Group_14" data-name="&lt;Group&gt;"><circle class="cls-2" cx="378.97" cy="576.73" r="10.28"/></g><g id="_Group_15" data-name="&lt;Group&gt;"><circle class="cls-2" cx="132.37" cy="412.33" r="10.28"/></g><g id="_Group_16" data-name="&lt;Group&gt;"><circle class="cls-2" cx="214.57" cy="412.33" r="10.28"/></g><g id="_Group_17" data-name="&lt;Group&gt;"><circle class="cls-2" cx="173.47" cy="453.43" r="10.28"/></g><g id="_Group_18" data-name="&lt;Group&gt;"><circle class="cls-2" cx="296.77" cy="412.33" r="10.28"/></g><g id="_Group_19" data-name="&lt;Group&gt;"><circle class="cls-2" cx="255.67" cy="535.63" r="10.28"/></g><g id="_Group_20" data-name="&lt;Group&gt;"><circle class="cls-2" cx="337.87" cy="453.43" r="10.28"/></g><g id="_Group_21" data-name="&lt;Group&gt;"><circle class="cls-2" cx="378.97" cy="412.33" r="10.28"/></g><g id="_Group_22" data-name="&lt;Group&gt;"><circle class="cls-2" cx="132.37" cy="494.53" r="10.28"/></g><g id="_Group_23" data-name="&lt;Group&gt;"><circle class="cls-2" cx="214.57" cy="494.53" r="10.28"/></g><g id="_Group_24" data-name="&lt;Group&gt;"><circle class="cls-2" cx="296.77" cy="494.53" r="10.28"/></g><g id="_Group_25" data-name="&lt;Group&gt;"><circle class="cls-2" cx="378.97" cy="494.53" r="10.28"/></g><g id="_Group_26" data-name="&lt;Group&gt;"><path class="cls-2" d="M700.94,355.82l5,4.06a1.38,1.38,0,0,1,0,2.16l-5,4.06-4.06,5a1.38,1.38,0,0,1-2.16,0l-4.06-5-5-4.06a1.38,1.38,0,0,1,0-2.16l5-4.06,4.06-5a1.38,1.38,0,0,1,2.16,0Z"/></g><g id="_Group_27" data-name="&lt;Group&gt;"><path class="cls-2" d="M563.94,438l5,4.06a1.38,1.38,0,0,1,0,2.16l-5,4.06-4.06,5a1.38,1.38,0,0,1-2.16,0l-4.06-5-5-4.06a1.38,1.38,0,0,1,0-2.16l5-4.06,4.06-5a1.38,1.38,0,0,1,2.16,0Z"/></g><g id="_Group_28" data-name="&lt;Group&gt;"><path class="cls-2" d="M647,550.62l5,4.06a1.38,1.38,0,0,1,0,2.16l-5,4.06-4.06,5a1.38,1.38,0,0,1-2.16,0l-4.06-5-5-4.06a1.38,1.38,0,0,1,0-2.16l5-4.06,4.06-5a1.38,1.38,0,0,1,2.16,0Z"/></g><g id="_Group_29" data-name="&lt;Group&gt;"><circle class="cls-2" cx="579.78" cy="330.13" r="10.28"/></g><g id="_Group_30" data-name="&lt;Group&gt;"><circle class="cls-2" cx="524.98" cy="360.96" r="10.28"/></g><g id="_Group_31" data-name="&lt;Group&gt;"><circle class="cls-2" cx="497.58" cy="415.76" r="10.28"/></g><g id="_Group_32" data-name="&lt;Group&gt;"><circle class="cls-2" cx="497.58" cy="470.56" r="10.28"/></g><g id="_Group_33" data-name="&lt;Group&gt;"><circle class="cls-2" cx="524.98" cy="525.36" r="10.28"/></g><g id="_Group_34" data-name="&lt;Group&gt;"><circle class="cls-2" cx="641.43" cy="330.13" r="10.28"/></g><g id="_Group_35" data-name="&lt;Group&gt;"><circle class="cls-2" cx="641.43" cy="391.78" r="10.28"/></g><g id="_Group_36" data-name="&lt;Group&gt;"><circle class="cls-2" cx="661.98" cy="443.16" r="10.28"/></g><g id="_Group_37" data-name="&lt;Group&gt;"><circle class="cls-2" cx="723.63" cy="415.69" r="10.28"/></g><g id="_Group_38" data-name="&lt;Group&gt;"><circle class="cls-2" cx="579.78" cy="391.78" r="10.28"/></g><g id="_Group_39" data-name="&lt;Group&gt;"><circle class="cls-2" cx="579.78" cy="494.53" r="10.28"/></g><g id="_Group_40" data-name="&lt;Group&gt;"><circle class="cls-2" cx="641.43" cy="494.53" r="10.28"/></g><g id="_Group_41" data-name="&lt;Group&gt;"><circle class="cls-2" cx="579.78" cy="556.18" r="10.28"/></g><g id="_Group_42" data-name="&lt;Group&gt;"><circle class="cls-2" cx="723.63" cy="470.42" r="10.28"/></g><g id="_Group_43" data-name="&lt;Group&gt;"><path class="cls-2" d="M704.08,520l5,4.06a1.38,1.38,0,0,1,0,2.16l-5,4.06-4.06,5a1.38,1.38,0,0,1-2.16,0l-4.06-5-5-4.06a1.38,1.38,0,0,1,0-2.16l5-4.06,4.06-5a1.38,1.38,0,0,1,2.16,0Z"/></g></g></g></svg>