<?xml version="1.0" encoding="utf-8"?>
<!-- Generator: Adobe Illustrator 21.1.0, SVG Export Plug-In . SVG Version: 6.00 Build 0)  -->
<svg version="1.1" id="Layer_1" xmlns="http://www.w3.org/2000/svg" xmlns:xlink="http://www.w3.org/1999/xlink" x="0px" y="0px"
	 viewBox="0 0 398 400" style="enable-background:new 0 0 398 400;" xml:space="preserve">
<style type="text/css">
	.st0{fill:#E4FDC9;}
	.st1{opacity:0.75;fill:#D2C378;}
	.st2{opacity:0.5;fill:#D2C378;}
	.st3{opacity:0.25;fill:#D2C378;}
	.st4{opacity:0;fill:#B2380B;}
	.st5{fill:#D2C378;}
</style>
<g>
	<g>
		<g>
			<path class="st0" d="M139.2,318c15,15.7,33.2,24.9,57.1,24.9c24.1,0,42.5-9.3,57.6-25.4c-24.1-27.6-40-71.4-57.1-119.3
				C179.6,246.4,163.6,290.5,139.2,318z"/>
			<path class="st0" d="M137.9,72.9c-24.4,26.6-40.3,70.9-58.4,121.9c18.1,51,34,95.3,58.4,121.9c24-27.2,39.7-71.3,57.7-121.8
				C177.6,144.2,161.8,100,137.9,72.9z"/>
			<path class="st0" d="M197.9,194.8c17.9,50.2,33.5,94.1,57.2,121.3c24.1-26.6,39.9-70.6,57.9-121.3c-18-50.7-33.8-94.7-57.9-121.3
				C231.4,100.6,215.8,144.5,197.9,194.8z"/>
			<path class="st0" d="M33.5,87.9c16.6,25.8,29.3,59.9,42.4,96.7c16.8-47.2,32.9-89.9,57.5-116.5c-15-15-33.3-23.8-57-23.8
				c-1.2,0-2.3,0.1-3.4,0.1C57.7,56.8,44.4,71.5,33.5,87.9z"/>
			<path class="st0" d="M134.7,66.6c16.1-16.8,35.8-26.8,61.6-26.8c26.1,0,45.9,10.2,62.1,27.4C273.8,51.4,292.7,42,317.1,42
				c0.8,0,1.6,0.1,2.4,0.1C286,15.7,243.7,0,197.7,0c-46,0-88.3,15.7-121.8,42.1c0.2,0,0.3,0,0.5,0C100.5,42,119.2,51.2,134.7,66.6z
				"/>
			<path class="st0" d="M360.4,85.7c-10.6-15.5-23.4-29.4-37.9-41.2c-1.8-0.1-3.5-0.2-5.4-0.2c-24,0-42.4,8.9-57.5,24.3
				c24.3,26.6,40.3,69.1,57,116.1C330.1,146.8,343.2,111.8,360.4,85.7z"/>
			<path class="st0" d="M366.1,300.4c18.4-30,29-65.3,29-103c0-38.9-11.3-75.2-30.7-105.7c-16.9,26.5-29.8,62.7-44.2,103.1
				C335.1,236.5,348.4,273.7,366.1,300.4z"/>
			<path class="st0" d="M31.7,304.3c9.6,14.9,21.2,28.5,34.4,40.3c3.3,0.4,6.7,0.6,10.2,0.6c23.7,0,42-8.7,57-23.8
				c-24.5-26.6-40.6-69.3-57.5-116.6C62.3,243,49.2,278.1,31.7,304.3z"/>
			<path class="st0" d="M29.5,94C11,124,0.3,159.5,0.3,197.4c0,36.8,10.1,71.2,27.6,100.7c17-26.5,30-62.9,44.4-103.4
				C58.3,155.5,45.7,120.2,29.5,94z"/>
			<path class="st0" d="M362.2,306.4c-18.2-26.3-31.6-62.4-45.6-101.5c-16.7,46.9-32.7,89.4-57,116c15.1,15.4,33.5,24.3,57.5,24.3
				c4.3,0,8.4-0.3,12.4-0.9C342,333.1,353,320.4,362.2,306.4z"/>
			<path class="st0" d="M258.3,322.3c-16.2,17.1-36,27.4-62.1,27.4c-25.8,0-45.5-10-61.6-26.8c-15.4,15.5-34.1,24.6-58.3,24.6
				c-2.5,0-4.9-0.1-7.3-0.3c34.6,29.7,79.5,47.7,128.6,47.7c49.3,0,94.3-18.1,128.9-47.9c-3.1,0.3-6.2,0.5-9.5,0.5
				C292.7,347.4,273.8,338.1,258.3,322.3z"/>
			<path class="st0" d="M253.8,72c-15.1-16.1-33.5-25.4-57.6-25.4c-23.9,0-42.1,9.1-57.1,24.9c24.4,27.6,40.4,71.7,57.6,120
				C213.8,143.4,229.7,99.6,253.8,72z"/>
		</g>
	</g>
	<g>
		<path class="st1" d="M141.8,323.2c15,15.7,33.2,24.9,57.1,24.9c24.1,0,42.5-9.3,57.6-25.4c-24.1-27.6-40-71.4-57.1-119.3
			C182.2,251.6,166.2,295.7,141.8,323.2z"/>
		<path class="st2" d="M140.5,78.1c-24.4,26.6-40.3,70.9-58.4,121.9c18.1,51,34,95.3,58.4,121.9c24-27.1,39.7-71.3,57.7-121.8
			C180.2,149.4,164.4,105.3,140.5,78.1z"/>
		<path class="st2" d="M200.6,200c17.9,50.2,33.5,94.1,57.2,121.3c24.1-26.6,39.9-70.6,57.9-121.3c-18-50.7-33.8-94.7-57.9-121.3
			C234.1,105.9,218.4,149.8,200.6,200z"/>
		<path class="st3" d="M36.1,93.1c16.6,25.8,29.3,59.9,42.4,96.7c16.8-47.2,32.9-89.9,57.5-116.5c-15-15.1-33.3-23.8-57-23.8
			c-1.2,0-2.3,0.1-3.4,0.1C60.4,62,47,76.7,36.1,93.1z"/>
		<path class="st4" d="M137.3,71.8C153.3,55,173,45,198.9,45c26.1,0,45.9,10.2,62.1,27.4c15.5-15.8,34.4-25.1,58.8-25.1
			c0.8,0,1.6,0.1,2.4,0.1C288.6,21,246.3,5.2,200.3,5.2c-46,0-88.3,15.7-121.8,42.1c0.2,0,0.3,0,0.5,0
			C103.1,47.3,121.8,56.4,137.3,71.8z"/>
		<path class="st3" d="M363,90.9c-10.6-15.5-23.4-29.4-37.9-41.2c-1.8-0.1-3.5-0.2-5.4-0.2c-24,0-42.4,8.9-57.5,24.3
			c24.3,26.6,40.3,69.1,57,116.1C332.8,152,345.8,117,363,90.9z"/>
		<path class="st2" d="M368.7,305.6c18.4-30,29-65.3,29-103c0-38.9-11.3-75.2-30.7-105.7c-16.9,26.5-29.8,62.7-44.2,103.1
			C337.7,241.7,351,278.9,368.7,305.6z"/>
		<path class="st1" d="M34.3,309.5c9.6,14.9,21.2,28.5,34.4,40.3c3.3,0.4,6.7,0.6,10.2,0.6c23.7,0,42-8.7,57-23.8
			C111.4,300,95.3,257.3,78.5,210C64.9,248.2,51.8,283.4,34.3,309.5z"/>
		<path class="st2" d="M32.2,99.2C13.6,129.3,2.9,164.7,2.9,202.6c0,36.8,10.1,71.2,27.6,100.7c17-26.5,30-62.8,44.4-103.4
			C60.9,160.7,48.3,125.5,32.2,99.2z"/>
		<path class="st1" d="M364.9,311.6c-18.2-26.3-31.6-62.4-45.6-101.5c-16.7,46.9-32.7,89.4-57,116c15.1,15.4,33.5,24.3,57.5,24.3
			c4.3,0,8.4-0.3,12.4-0.9C344.6,338.3,355.6,325.6,364.9,311.6z"/>
		<path class="st5" d="M260.9,327.5c-16.2,17.1-36,27.4-62.1,27.4c-25.8,0-45.5-10-61.6-26.8c-15.4,15.5-34.1,24.6-58.3,24.6
			c-2.5,0-4.9-0.1-7.3-0.3C106.2,382,151.2,400,200.3,400c49.3,0,94.3-18.1,128.9-47.9c-3.1,0.3-6.2,0.5-9.5,0.5
			C295.3,352.6,276.5,343.3,260.9,327.5z"/>
		<path class="st3" d="M256.4,77.2c-15.1-16.1-33.5-25.4-57.6-25.4c-23.9,0-42.1,9.1-57.1,24.9c24.4,27.6,40.4,71.7,57.6,120
			C216.4,148.6,232.3,104.8,256.4,77.2z"/>
	</g>
</g>
</svg>
